<?xml version="1.0" standalone="no"?><!DOCTYPE svg PUBLIC "-//W3C//DTD SVG 1.1//EN" "http://www.w3.org/Graphics/SVG/1.1/DTD/svg11.dtd"><svg t="1598948112359" class="icon" viewBox="0 0 1024 1024" version="1.1" xmlns="http://www.w3.org/2000/svg" p-id="3686" xmlns:xlink="http://www.w3.org/1999/xlink" width="600" height="600"><defs><style type="text/css"></style></defs><path d="M870.4 1024H153.6c-84.48 0-153.6-69.12-153.6-153.6V153.6C0 69.12 69.12 0 153.6 0h716.8c84.48 0 153.6 69.12 153.6 153.6v716.8c0 84.48-69.12 153.6-153.6 153.6zM385.024 415.232l-23.552 140.288H409.6l-23.552-140.288h-1.024zM512 126.464c-212.992 0-385.536 172.544-385.536 385.536 0 212.992 172.544 385.536 385.536 385.536 212.992 0 385.536-172.544 385.536-385.536 0-212.992-172.544-385.536-385.536-385.536zM428.544 678.4L419.84 620.544H351.232l-8.704 57.856H252.416L331.264 348.16h108.032l80.384 330.24H428.544z m326.144-102.912c-1.536 19.968-5.632 37.376-12.8 52.736-7.168 15.36-17.408 27.648-31.232 36.352-13.824 9.216-33.28 13.824-58.368 13.824H527.36V348.16h124.928c25.088 0 44.544 4.608 58.368 13.824 13.824 9.216 24.064 21.504 31.232 36.352 7.168 15.36 11.264 32.768 12.8 52.736 1.536 19.968 2.56 40.448 2.56 62.464 0 20.992-1.024 41.984-2.56 61.952z m-92.672-147.456c-2.56-7.168-6.656-12.288-11.264-14.336-5.12-2.56-11.776-3.584-19.968-3.584h-16.896v206.336h16.896c8.192 0 14.848-1.024 19.968-3.584 5.12-2.56 8.704-7.168 11.264-14.336 2.56-7.168 4.096-17.92 5.12-31.232 0.512-13.312 1.024-31.232 1.024-53.76 0-22.016-0.512-39.936-1.024-53.76-1.024-13.824-2.56-24.576-5.12-31.744z" p-id="3687"></path></svg>