<?xml version="1.0" standalone="no"?><!DOCTYPE svg PUBLIC "-//W3C//DTD SVG 1.1//EN" "http://www.w3.org/Graphics/SVG/1.1/DTD/svg11.dtd"><svg t="1606190125267" class="icon" viewBox="0 0 1338 1024" version="1.1" xmlns="http://www.w3.org/2000/svg" p-id="4991" xmlns:xlink="http://www.w3.org/1999/xlink" width="783.984375" height="600"><defs><style type="text/css"></style></defs><path d="M963.419301 601.653706c-4.296503 0-8.593007 0.143217-12.746294 0.572867L885.939021 463.592727c56.570629-48.264056 92.518042-120.015664 92.518042-200.217063 0-145.221818-117.724196-263.089231-263.089231-263.08923-145.221818 0-263.089231 117.724196-263.089231 263.08923 0 54.852028 16.756364 105.693986 45.542937 147.942937L312.355804 666.387692c-13.319161-3.007552-26.781538-4.582937-40.387133-4.582937-99.678881 0-180.453147 80.774266-180.453147 180.453147s80.774266 180.453147 180.453147 180.453147 180.453147-80.774266 180.453147-180.453147c0-54.852028-24.49007-103.975385-63.158601-137.058461l166.274685-232.727273c44.253986 33.942378 99.822098 54.135944 159.973147 54.135944 35.517762 0 69.46014-7.017622 100.394965-19.907133l58.146014 124.598601c-36.94993 27.354406-60.867133 71.321958-60.867133 120.874965 0 83.065734 67.311888 150.377622 150.377622 150.377623s150.377622-67.311888 150.377623-150.377623c-0.286434-83.208951-67.598322-150.520839-150.520839-150.520839zM271.825455 959.982098c-65.163636 0-117.867413-52.703776-117.867413-117.867413 0-65.02042 52.846993-117.867413 117.867413-117.867412 65.163636 0 117.867413 52.846993 117.867412 117.867412 0.143217 65.163636-52.703776 117.867413-117.867412 117.867413z m241.74993-696.606434c0-111.136224 90.36979-201.362797 201.792447-201.362797 111.422657 0 201.792448 90.083357 201.792448 201.362797 0 111.136224-90.36979 201.362797-201.792448 201.362798-111.422657 0-201.792448-90.226573-201.792447-201.362798z m449.843916 575.015385c-47.691189 0-86.35972-38.668531-86.359721-86.35972s38.668531-86.35972 86.359721-86.359721 86.35972 38.668531 86.35972 86.359721-38.668531 86.35972-86.35972 86.35972z m0 0" p-id="4992"></path></svg>