<?xml version="1.0" standalone="no"?><!DOCTYPE svg PUBLIC "-//W3C//DTD SVG 1.1//EN" "http://www.w3.org/Graphics/SVG/1.1/DTD/svg11.dtd"><svg t="1598585027544" class="icon" viewBox="0 0 1024 1024" version="1.1" xmlns="http://www.w3.org/2000/svg" p-id="2119" xmlns:xlink="http://www.w3.org/1999/xlink" width="600" height="600"><defs><style type="text/css"></style></defs><path d="M631.978667 541.980444V1024h240.014222c49.607111 0 91.989333-40.391111 91.989333-89.998222V541.980444h-332.003555zM60.017778 541.980444v392.021334c0 49.607111 40.334222 89.998222 89.998222 89.998222h242.005333V541.980444H60.017778z" p-id="2120"></path><path d="M934.001778 240.014222H811.235556c19.057778-25.144889 30.776889-56.092444 30.776888-89.998222A150.186667 150.186667 0 0 0 691.996444 0C587.320889 0 556.999111 75.434667 512 189.610667 467.000889 75.434667 436.679111 0 332.003556 0a150.186667 150.186667 0 0 0-150.016 150.016c0 33.905778 11.719111 64.853333 30.776888 89.998222H89.998222C40.391111 240.014222 0 280.348444 0 330.012444v62.008889c0 49.607111 40.391111 89.998222 89.998222 89.998223h302.023111V240.014222H332.003556c-49.607111 0-89.998222-40.391111-89.998223-89.998222s40.391111-89.998222 89.998223-89.998222c61.496889 0 78.961778 36.864 124.928 153.543111l10.695111 26.453333h-15.644445V1024h119.978667V240.014222H556.373333c3.470222-8.704 7.452444-18.318222 10.638223-26.510222 45.966222-116.622222 63.431111-153.543111 124.928-153.543111 49.607111 0 89.998222 40.391111 89.998222 89.998222s-40.391111 89.998222-89.998222 89.998222h-60.017778v242.005334h302.023111A90.055111 90.055111 0 0 0 1024 392.021333v-62.008889c0-49.664-40.391111-89.998222-89.998222-89.998222z" p-id="2121"></path></svg>