<?xml version="1.0" standalone="no"?><!DOCTYPE svg PUBLIC "-//W3C//DTD SVG 1.1//EN" "http://www.w3.org/Graphics/SVG/1.1/DTD/svg11.dtd"><svg t="1598585630721" class="icon" viewBox="0 0 1024 1024" version="1.1" xmlns="http://www.w3.org/2000/svg" p-id="30677" xmlns:xlink="http://www.w3.org/1999/xlink" width="600" height="600"><defs><style type="text/css"></style></defs><path d="M283.904 328.576a176.512 176.512 0 1 0 353.024 0 176.512 176.512 0 1 0-353.024 0zM995.712 445.568c-10.496-10.496-27.648-10.496-38.144 0L664.704 738.304c-2.304 2.304-3.968 5.12-5.248 7.936-0.384 0-0.64 0.128-1.024 0.128s-0.768-0.128-1.024-0.128a26.957 26.957 0 0 1-36.224-1.792c-10.496-10.496-10.496-27.648 0-38.144l86.784-86.784c-36.864-36.352-84.608-63.488-138.496-77.568l-76.8 76.8L463.744 729.6c-0.64 1.792-5.504 1.792-6.144 0l-27.776-106.624-80.384-80.384C225.28 576 134.656 679.424 134.656 801.92v50.176c0 24.576 22.144 44.544 49.536 44.544h64v-84.608a14.592 14.592 0 1 1 29.184 0v84.608h460.032c27.392 0 49.536-19.968 49.536-44.544V801.92c0-32.128-6.656-62.72-18.048-91.264l227.2-227.2c10.112-10.24 10.112-27.392-0.384-37.888z" p-id="30678"></path></svg>